<?xml version="1.0" encoding="UTF-8" standalone="no"?>
<svg
   xmlns:dc="http://purl.org/dc/elements/1.1/"
   xmlns:cc="http://creativecommons.org/ns#"
   xmlns:rdf="http://www.w3.org/1999/02/22-rdf-syntax-ns#"
   xmlns:svg="http://www.w3.org/2000/svg"
   xmlns="http://www.w3.org/2000/svg"
   xmlns:sodipodi="http://sodipodi.sourceforge.net/DTD/sodipodi-0.dtd"
   xmlns:inkscape="http://www.inkscape.org/namespaces/inkscape"
   viewBox="0 0 48 48"
   id="svg2"
   version="1.1"
   inkscape:version="0.91 r13725"
   sodipodi:docname="nameless_term_numix_circle2.svg">
  <metadata
     id="metadata63">
    <rdf:RDF>
      <cc:Work
         rdf:about="">
        <dc:format>image/svg+xml</dc:format>
        <dc:type
           rdf:resource="http://purl.org/dc/dcmitype/StillImage" />
      </cc:Work>
    </rdf:RDF>
  </metadata>
  <sodipodi:namedview
     pagecolor="#ffffff"
     bordercolor="#666666"
     borderopacity="1"
     objecttolerance="10"
     gridtolerance="10"
     guidetolerance="10"
     inkscape:pageopacity="0"
     inkscape:pageshadow="2"
     inkscape:window-width="1600"
     inkscape:window-height="831"
     id="namedview61"
     showgrid="false"
     inkscape:zoom="13.906433"
     inkscape:cx="23.754838"
     inkscape:cy="21.080628"
     inkscape:window-x="0"
     inkscape:window-y="27"
     inkscape:window-maximized="1"
     inkscape:current-layer="svg2" />
  <defs
     id="defs4">
    <linearGradient
       id="linearGradient3764"
       x1="1"
       x2="47"
       gradientUnits="userSpaceOnUse"
       gradientTransform="matrix(0,-1,1,0,-1.5e-6,47.999998)">
      <stop
         style="stop-color:#2a7d1f;stop-opacity:1"
         id="stop7" />
      <stop
         offset="1"
         style="stop-color:#2f8c23;stop-opacity:1"
         id="stop9" />
    </linearGradient>
    <clipPath
       id="clipPath-980860875">
      <g
         transform="translate(0,-1004.3622)"
         id="g12">
        <path
           d="m -24 13 c 0 1.105 -0.672 2 -1.5 2 -0.828 0 -1.5 -0.895 -1.5 -2 0 -1.105 0.672 -2 1.5 -2 0.828 0 1.5 0.895 1.5 2 z"
           transform="matrix(15.333333,0,0,11.5,414.99999,878.8622)"
           style="fill:#1890d0"
           id="path14" />
      </g>
    </clipPath>
    <clipPath
       id="clipPath-985888089">
      <g
         transform="translate(0,-1004.3622)"
         id="g17">
        <path
           d="m -24 13 c 0 1.105 -0.672 2 -1.5 2 -0.828 0 -1.5 -0.895 -1.5 -2 0 -1.105 0.672 -2 1.5 -2 0.828 0 1.5 0.895 1.5 2 z"
           transform="matrix(15.333333,0,0,11.5,414.99999,878.8622)"
           style="fill:#1890d0"
           id="path19" />
      </g>
    </clipPath>
    <filter
       style="color-interpolation-filters:sRGB;"
       inkscape:label="Drop Shadow"
       id="filter4577">
      <feFlood
         flood-opacity="1"
         flood-color="rgb(33,125,206)"
         result="flood"
         id="feFlood4579" />
      <feComposite
         in="flood"
         in2="SourceGraphic"
         operator="in"
         result="composite1"
         id="feComposite4581" />
      <feGaussianBlur
         in="composite1"
         stdDeviation="0"
         result="blur"
         id="feGaussianBlur4583" />
      <feOffset
         dx="1"
         dy="1"
         result="offset"
         id="feOffset4585" />
      <feComposite
         in="SourceGraphic"
         in2="offset"
         operator="over"
         result="composite2"
         id="feComposite4587" />
    </filter>
    <filter
       style="color-interpolation-filters:sRGB;"
       inkscape:label="Drop Shadow"
       id="filter4163">
      <feFlood
         flood-opacity="1"
         flood-color="rgb(33,125,206)"
         result="flood"
         id="feFlood4165" />
      <feComposite
         in="flood"
         in2="SourceGraphic"
         operator="in"
         result="composite1"
         id="feComposite4167" />
      <feGaussianBlur
         in="composite1"
         stdDeviation="0"
         result="blur"
         id="feGaussianBlur4169" />
      <feOffset
         dx="1"
         dy="1"
         result="offset"
         id="feOffset4171" />
      <feComposite
         in="SourceGraphic"
         in2="offset"
         operator="over"
         result="composite2"
         id="feComposite4173" />
    </filter>
  </defs>
  <g
     id="g21">
    <path
       d="m 36.31 5 c 5.859 4.062 9.688 10.831 9.688 18.5 c 0 12.426 -10.07 22.5 -22.5 22.5 c -7.669 0 -14.438 -3.828 -18.5 -9.688 c 1.037 1.822 2.306 3.499 3.781 4.969 c 4.085 3.712 9.514 5.969 15.469 5.969 c 12.703 0 23 -10.298 23 -23 c 0 -5.954 -2.256 -11.384 -5.969 -15.469 c -1.469 -1.475 -3.147 -2.744 -4.969 -3.781 z m 4.969 3.781 c 3.854 4.113 6.219 9.637 6.219 15.719 c 0 12.703 -10.297 23 -23 23 c -6.081 0 -11.606 -2.364 -15.719 -6.219 c 4.16 4.144 9.883 6.719 16.219 6.719 c 12.703 0 23 -10.298 23 -23 c 0 -6.335 -2.575 -12.06 -6.719 -16.219 z"
       style="opacity:0.05"
       id="path23" />
    <path
       d="m 41.28 8.781 c 3.712 4.085 5.969 9.514 5.969 15.469 c 0 12.703 -10.297 23 -23 23 c -5.954 0 -11.384 -2.256 -15.469 -5.969 c 4.113 3.854 9.637 6.219 15.719 6.219 c 12.703 0 23 -10.298 23 -23 c 0 -6.081 -2.364 -11.606 -6.219 -15.719 z"
       style="opacity:0.1"
       id="path25" />
    <path
       d="m 31.25 2.375 c 8.615 3.154 14.75 11.417 14.75 21.13 c 0 12.426 -10.07 22.5 -22.5 22.5 c -9.708 0 -17.971 -6.135 -21.12 -14.75 a 23 23 0 0 0 44.875 -7 a 23 23 0 0 0 -16 -21.875 z"
       style="opacity:0.2"
       id="path27" />
  </g>
  <g
     id="g29"
     style="fill:#268bd2;fill-opacity:1">
    <path
       d="m 24 1 c 12.703 0 23 10.297 23 23 c 0 12.703 -10.297 23 -23 23 -12.703 0 -23 -10.297 -23 -23 0 -12.703 10.297 -23 23 -23 z"
       style="fill:#268bd2;fill-opacity:1"
       id="path31" />
  </g>
  <g
     id="g57">
    <path
       d="m 40.03 7.531 c 3.712 4.084 5.969 9.514 5.969 15.469 0 12.703 -10.297 23 -23 23 c -5.954 0 -11.384 -2.256 -15.469 -5.969 4.178 4.291 10.01 6.969 16.469 6.969 c 12.703 0 23 -10.298 23 -23 0 -6.462 -2.677 -12.291 -6.969 -16.469 z"
       style="opacity:0.1"
       id="path59" />
  </g>
  <g
     style="font-style:normal;font-variant:normal;font-weight:bold;font-stretch:normal;font-size:18.5214119px;line-height:125%;font-family:'Roboto Mono';-inkscape-font-specification:'Roboto Mono, Bold';text-align:start;letter-spacing:0px;word-spacing:0px;writing-mode:lr-tb;text-anchor:start;fill:#fdf6e3;fill-opacity:0.94117647;stroke:none;stroke-width:1px;stroke-linecap:butt;stroke-linejoin:miter;stroke-opacity:1;filter:url(#filter4163)"
     id="text4159">
    <path
       d="m 15.327132,27.215019 q 0,-0.379833 -0.117567,-0.66923 -0.108524,-0.298441 -0.361747,-0.54262 -0.244178,-0.244179 -0.651143,-0.443139 -0.397921,-0.208004 -0.967671,-0.406965 -0.91341,-0.325571 -1.664034,-0.687318 -0.750623,-0.361746 -1.284199,-0.84106 -0.5245322,-0.479314 -0.8139293,-1.11237 -0.289397,-0.6421 -0.289397,-1.519334 0,-0.768711 0.262266,-1.401767 0.2622661,-0.6421 0.7415803,-1.11237 0.479314,-0.470271 1.157588,-0.759668 0.678274,-0.289397 1.510291,-0.37079 l 0,-1.944386 1.446985,0 0,1.962474 q 0.813929,0.108524 1.465073,0.443139 0.651143,0.334615 1.103326,0.877235 0.461227,0.533576 0.705405,1.266112 0.253223,0.723493 0.253223,1.627858 l -2.514137,0 q 0,-1.094282 -0.497401,-1.654989 -0.497402,-0.569751 -1.347505,-0.569751 -0.461227,0 -0.804886,0.126612 -0.334615,0.117567 -0.551663,0.343659 -0.217048,0.217047 -0.325572,0.515488 -0.09948,0.298441 -0.09948,0.651144 0,0.352702 0.09948,0.633056 0.108524,0.271309 0.352703,0.506445 0.253222,0.235135 0.660187,0.452182 0.406965,0.208005 1.01289,0.425052 0.913409,0.343659 1.654989,0.714449 0.74158,0.361747 1.266112,0.850104 0.533576,0.479314 0.813929,1.121414 0.289398,0.633056 0.289398,1.501247 0,0.795842 -0.262267,1.437942 -0.262266,0.633056 -0.750623,1.094282 -0.488358,0.461227 -1.175676,0.74158 -0.687318,0.27131 -1.537422,0.352703 l 0,1.772557 -1.437941,0 0,-1.772557 Q 11.899586,30.75109 11.176093,30.488824 10.4526,30.217514 9.8918937,29.711069 9.3402305,29.204624 9.0056152,28.435913 8.6709998,27.658159 8.6709998,26.57292 l 2.5231802,0 q 0,0.651143 0.189917,1.094282 0.189917,0.434096 0.488358,0.696362 0.307484,0.253222 0.696361,0.361746 0.388878,0.108524 0.795842,0.108524 0.967672,0 1.465073,-0.452183 0.497401,-0.452183 0.497401,-1.166632 z"
       style=""
       id="path4176" />
    <path
       d="m 28.974012,23.868866 q 0,0.732536 -0.208004,1.356549 -0.198961,0.624012 -0.569751,1.076195 -0.361746,0.443139 -0.877234,0.696362 -0.515489,0.253222 -1.130458,0.253222 -0.397921,0 -0.750623,-0.07235 -0.343659,-0.07235 -0.678275,-0.217048 -0.334615,-0.153742 -0.660187,-0.379834 -0.325571,-0.226091 -0.669231,-0.542619 -0.443139,-0.361746 -0.850103,-0.560707 -0.406965,-0.19896 -0.832017,-0.19896 -0.244179,0 -0.47027,0.126611 -0.226092,0.117567 -0.406965,0.325571 -0.171829,0.198961 -0.280353,0.461227 -0.09948,0.262266 -0.09948,0.54262 l -1.627859,-0.198961 q 0,-0.732536 0.198961,-1.338461 0.19896,-0.614969 0.560706,-1.049065 0.37079,-0.443139 0.877235,-0.687318 0.515489,-0.244179 1.130458,-0.244179 0.786798,0 1.446985,0.307485 0.669231,0.307484 1.338461,0.895322 0.443139,0.379834 0.84106,0.56975 0.406965,0.189917 0.81393,0.189917 0.244178,0 0.461226,-0.126611 0.217048,-0.126611 0.379834,-0.334615 0.162786,-0.208004 0.262266,-0.47027 0.09948,-0.27131 0.09948,-0.551664 l 1.700208,0.17183 z"
       style=""
       id="path4178" />
    <path
       d="m 31.189708,23.127286 0,-2.432744 8.139292,3.309979 0,2.05291 -8.139292,3.319023 0,-2.441788 5.182016,-1.736382 0.551663,-0.180874 -0.542619,-0.180873 -5.19106,-1.709251 z"
       style=""
       id="path4180" />
  </g>
</svg>
